<mxfile host="65bd71144e">
    <diagram id="fuMyjOYIk-WzGDsCFsqc" name="第 1 页">
        <mxGraphModel dx="650" dy="401" grid="0" gridSize="10" guides="1" tooltips="1" connect="1" arrows="1" fold="1" page="0" pageScale="1" pageWidth="827" pageHeight="1169" background="#FFFF99" math="0" shadow="0">
            <root>
                <mxCell id="0"/>
                <mxCell id="1" parent="0"/>
                <mxCell id="5" value="" style="edgeStyle=none;html=1;strokeWidth=4;strokeColor=#191919;" edge="1" parent="1" source="3" target="4">
                    <mxGeometry relative="1" as="geometry"/>
                </mxCell>
                <mxCell id="3" value="&lt;font color=&quot;#404040&quot;&gt;&lt;span style=&quot;font-size: 16px ; letter-spacing: 0.3px ; background-color: rgb(255 , 255 , 255)&quot;&gt;&lt;b&gt;PrepareReq&lt;/b&gt;&lt;/span&gt;&lt;/font&gt;" style="rounded=0;whiteSpace=wrap;html=1;fillColor=#76608a;strokeColor=#432D57;fontColor=#ffffff;" vertex="1" parent="1">
                    <mxGeometry x="63" y="67" width="120" height="60" as="geometry"/>
                </mxCell>
                <mxCell id="7" value="" style="edgeStyle=none;html=1;strokeColor=#191919;strokeWidth=4;" edge="1" parent="1" source="4" target="6">
                    <mxGeometry relative="1" as="geometry"/>
                </mxCell>
                <mxCell id="4" value="&lt;strong style=&quot;box-sizing: border-box ; color: rgb(64 , 64 , 64) ; font-family: &amp;#34;lato&amp;#34; , , &amp;#34;helvetica neue&amp;#34; , &amp;#34;arial&amp;#34; , sans-serif ; font-size: 16px ; letter-spacing: 0.3px ; background-color: rgb(255 , 255 , 255)&quot;&gt;SignReq&lt;/strong&gt;" style="rounded=0;whiteSpace=wrap;html=1;fillColor=#76608a;strokeColor=#432D57;fontColor=#ffffff;" vertex="1" parent="1">
                    <mxGeometry x="263" y="67" width="120" height="60" as="geometry"/>
                </mxCell>
                <mxCell id="9" value="" style="edgeStyle=none;html=1;strokeColor=#191919;strokeWidth=4;" edge="1" parent="1" source="6" target="8">
                    <mxGeometry relative="1" as="geometry"/>
                </mxCell>
                <mxCell id="6" value="&lt;strong style=&quot;box-sizing: border-box ; color: rgb(64 , 64 , 64) ; font-family: &amp;#34;lato&amp;#34; , , &amp;#34;helvetica neue&amp;#34; , &amp;#34;arial&amp;#34; , sans-serif ; font-size: 16px ; letter-spacing: 0.3px ; background-color: rgb(255 , 255 , 255)&quot;&gt;CommitReq&lt;/strong&gt;" style="rounded=0;whiteSpace=wrap;html=1;fillColor=#76608a;strokeColor=#432D57;fontColor=#ffffff;" vertex="1" parent="1">
                    <mxGeometry x="263" y="207" width="120" height="60" as="geometry"/>
                </mxCell>
                <mxCell id="8" value="&lt;strong style=&quot;box-sizing: border-box ; color: rgb(64 , 64 , 64) ; font-family: &amp;#34;lato&amp;#34; , , &amp;#34;helvetica neue&amp;#34; , &amp;#34;arial&amp;#34; , sans-serif ; font-size: 16px ; letter-spacing: 0.3px ; background-color: rgb(255 , 255 , 255)&quot;&gt;ViewChangeReq&lt;/strong&gt;" style="rounded=0;whiteSpace=wrap;html=1;fillColor=#76608a;strokeColor=#432D57;fontColor=#ffffff;" vertex="1" parent="1">
                    <mxGeometry x="63" y="207" width="120" height="60" as="geometry"/>
                </mxCell>
            </root>
        </mxGraphModel>
    </diagram>
</mxfile>